<?xml version="1.0" encoding="UTF-8"?><svg id="Warstwa_1" xmlns="http://www.w3.org/2000/svg" viewBox="0 0 226.82 47.99"><defs><style>.cls-1{stroke:#fff;}.cls-1,.cls-2{fill:#fff;}.cls-1,.cls-3{stroke-linecap:round;stroke-linejoin:round;stroke-width:.06px;}.cls-4{fill:#e84e0f;}.cls-3{stroke:#1d1d1b;}.cls-5{fill:none;}</style></defs><rect class="cls-3" width="226.82" height="48.16"/><rect class="cls-5" x="15.82" y="15.89" width="195" height="16"/><rect class="cls-5" x="13.82" y="15.89" width="197" height="16"/><path class="cls-2" d="M63.25,22.27c4.02,0,6.19,1.46,6.19,4.36,0,3.27-2.05,5.22-7.07,5.22h-15.35l3.28-4.1h12.47c1.21,0,1.75-.34,1.75-1.17s-.54-1.14-1.75-1.14h-8.97c-4.24,0-6.19-1.83-6.19-4.57,0-3,2.07-4.95,7.07-4.95h14.32l-3.28,4.14h-11.44c-1.18,0-1.75,.29-1.75,1.09s.57,1.12,1.75,1.12h8.97Z"/><path class="cls-2" d="M90.7,15.92l-3.3,4.14h-5.89v11.78h-5.11v-11.78h-7.74l3.3-4.14h18.73Z"/><path class="cls-2" d="M113.99,31.84h-6.83l-3.67-4.22h-7.84v4.22h-5.11v-8.14h14.34c1.58,0,2.81-.69,2.81-1.78,0-1.24-1.06-1.86-2.81-1.86h-14.34l3.33-4.14h10.59c3.75,0,8.48,1.14,8.48,5.69,0,2.47-1.6,4.53-4.31,5.05,.57,.4,1.18,.98,2.32,2.1l3.03,3.1h0Z"/><path class="cls-2" d="M120.98,31.84h-5.11V15.92h5.11v15.92Z"/><path class="cls-4" d="M141.48,31.84h-15.63c-1.28,0-2.37-.72-2.37-2,0-.74,.42-1.46,1.11-1.98l6.01-4.57c2.74-2.12,3.92-2.9,4.54-3.33-.89,.07-2.39,.09-5.67,.09h-6.6l3.27-4.13h15.2c1.28,0,2.37,.72,2.37,2,0,.72-.42,1.46-1.11,1.95l-6.09,4.66c-2.71,2.07-3.84,2.88-4.49,3.31,.81-.05,3.96-.09,6.56-.09h5.98l-3.08,4.1h0Z"/><path class="cls-4" d="M163.64,31.84h-15.63c-1.28,0-2.37-.72-2.37-2,0-.74,.42-1.46,1.11-1.98l6.01-4.57c2.74-2.12,3.92-2.9,4.54-3.33-.89,.07-2.39,.09-5.67,.09h-6.6l3.26-4.13h15.2c1.28,0,2.37,.72,2.37,2,0,.72-.42,1.46-1.11,1.95l-6.09,4.66c-2.71,2.07-3.84,2.88-4.49,3.31,.81-.05,3.96-.09,6.56-.09h5.99l-3.08,4.1h0Z"/><path class="cls-4" d="M187.61,27.75l-3.28,4.1h-15.87V15.92h19.1l-3.3,4.14h-10.67v1.9h13.06l-2.94,3.62h-10.13v2.16h14.04Z"/><path class="cls-4" d="M204.64,22.27c4.02,0,6.19,1.46,6.19,4.36,0,3.27-2.05,5.22-7.07,5.22h-15.35l3.28-4.1h12.47c1.21,0,1.75-.34,1.75-1.17s-.54-1.14-1.75-1.14h-8.97c-4.24,0-6.18-1.83-6.18-4.57,0-3,2.07-4.95,7.07-4.95h14.32l-3.28,4.14h-11.44c-1.18,0-1.75,.29-1.75,1.09s.57,1.12,1.75,1.12h8.97Z"/><path class="cls-1" d="M31.48,15.89l-.19,.13-.2,.13-.2,.12-.2,.11-.2,.11-.21,.09-.21,.09-.21,.08-.22,.08-.22,.07-.22,.06-.22,.05-.23,.04-.23,.03-.23,.03-.23,.02h-.46l-.23-.02-.23-.03-.23-.03-.23-.04-.22-.05-.22-.06-.22-.07-.22-.08-.21-.08-.21-.09-.21-.09-.2-.11-.2-.11-.2-.12-.2-.13-.19-.13-8.37,11.94,.07,.05,.07,.04,.07,.04,.07,.04,.07,.03,.07,.03,.07,.03,.07,.03,.07,.03,.07,.03,.07,.02,.08,.02h.07l.08,.02h.15l.15-.13,.15-.12,.15-.12,.15-.11,.16-.11,.16-.1,.16-.09,.17-.09,.17-.08,.17-.08,.18-.08,.18-.07,.19-.06,.19-.06,.19-.05,.19-.04,.19-.03,.19-.03,.19-.03,.19-.02,.19-.02h.58l.2,.02,.2,.02,.19,.03,.19,.03,.19,.04,.19,.04,.19,.05,.19,.06,.18,.07,.18,.08,.18,.08,.17,.08,.17,.08,.16,.09,.16,.1,.16,.1,.15,.11,.15,.11,.15,.12,.15,.13,.15,.13,.14,.13,.14,.14,.13,.14,.12,.15,.12,.15,.11,.15,.11,.16,.11,.16,.1,.17,.1,.17,.09,.18,.09,.18,.08,.18,.07,.19,.07,.19,.07,.19,.06,.19,.06,.19,.05,.19,.07,.05,.07,.05,.07,.04,.07,.04,.07,.03,.07,.03,.07,.03,.07,.03,.07,.03,.07,.02,.07,.02,.07,.02h.07l.08,.02h.39l.08-.02,.07-.02,.07-.02,.07-.02,.07-.03,.07-.03,.07-.03,.07-.03,.07-.03,.07-.04,.07-.04,.07-.05,.07-.05,.05-.19,.06-.19,.06-.19,.07-.19,.07-.19,.07-.19,.08-.18,.09-.18,.09-.18,.1-.17,.1-.17,.11-.16,.11-.16,.11-.16,.12-.15,.12-.15,.13-.14,.14-.13,.14-.13,.14-.13,.15-.13,.15-.12,.15-.12,.15-.11,.16-.11,.16-.1,.16-.09,.17-.09,.17-.08,.18-.08,.18-.07,.18-.07,.19-.06,.19-.05,.19-.05,.19-.04,.19-.03,.19-.03,.19-.03,.19-.02h.77l.2,.03,.2,.03,.19,.03,.19,.03,.19,.04,.19,.05,.18,.06,.18,.06,.18,.07,.18,.08,.17,.08,.17,.08,.17,.09,.17,.1,.16,.1,.16,.11,.15,.11,.15,.12,.15,.12,.15,.13h.24l.08-.02,.07-.02,.07-.02,.07-.03,.07-.03,.07-.03,.07-.03,.07-.03,.07-.03,.07-.04,.07-.04,.07-.04,.07-.05-8.35-11.91Zm-3.63,7.91c-1.13,0-2.05-.94-2.05-2.12s.91-2.12,2.05-2.12,2.05,.94,2.05,2.12-.91,2.12-2.05,2.12Z"/></svg>